<?xml version="1.0" encoding="utf-8" ?>
<svg xmlns="http://www.w3.org/2000/svg" xmlns:xlink="http://www.w3.org/1999/xlink" width="1053" height="1053">
	<defs>
		<filter id="shadow" x="-20%" y="-20%" width="140%" height="140%">
			<feGaussianBlur in="SourceAlpha" stdDeviation="15"/>
			<feOffset dx="0" dy="0" result="offsetblur"/>
			<feComponentTransfer>
				<feFuncA type="linear" slope="0.3"/>
			</feComponentTransfer>
			<feMerge>
				<feMergeNode/>
				<feMergeNode in="SourceGraphic"/>
			</feMerge>
		</filter>
	</defs>
	
	<circle cx="526.5" cy="526.5" r="450" fill="#ffffff" filter="url(#shadow)"/>
	
	<path fill="#0A2D58" transform="scale(1.02846 1.02846)" d="M577.788 777.712C584.163 777.654 599.53 776.642 604.879 778.05C606.043 778.357 605.827 778.429 606.39 779.369C606.336 780.756 606.333 781.05 605.608 782.216C601.985 784.223 596.693 783.255 592.663 783.03L592.624 807.375L592.74 819.512L586.787 819.598L586.861 783.193C582.855 783.048 577.791 784.32 574.266 782.068C573.517 780.754 573.55 780.582 573.655 779.059C574.97 777.883 576.071 777.983 577.788 777.712Z"/>
	<path fill="#0A2D58" transform="scale(1.02846 1.02846)" d="M714.521 796.474L779.776 796.586L779.672 803.998C779.32 804.326 778.856 804.507 778.375 804.566C772.297 805.313 765.057 804.555 758.86 804.549L714.505 804.513L714.521 796.474Z"/>
	<path fill="#0A2D58" transform="scale(1.02846 1.02846)" d="M367.569 778.164C374.542 778.297 383.511 776.936 390.182 778.138C391.839 778.437 393.558 779.187 394.507 780.622L394.172 781.493C388.385 784.596 380.016 783.484 373.62 783.346C373.562 787.586 373.633 791.833 373.651 796.073C379.115 795.699 385.627 794.824 390.814 796.984C391.653 798.049 391.653 798.137 391.717 799.498C388.778 802.875 378.657 800.561 374.192 801.265C374 801.296 373.809 801.334 373.618 801.368C373.455 805.586 373.562 809.849 373.544 814.073C378.148 814.134 391.548 812.761 394.53 815.475C394.989 816.844 394.968 816.887 394.505 818.259C394.111 818.57 393.774 818.973 393.322 819.192C391.336 820.149 371.353 819.527 367.561 819.526L367.569 778.164Z"/>
	<path fill="#0A2D58" transform="scale(1.02846 1.02846)" d="M458.043 778.145C465.566 777.937 474.399 777.15 481.818 778.108C483.078 778.271 483.624 778.386 484.439 779.414C484.359 780.622 484.45 781.388 483.425 782.244C480.262 784.885 468.696 783.5 464.407 783.415L464.252 796.214C469.201 796.084 474.578 795.538 479.48 795.944C480.904 796.062 481.651 796.577 482.575 797.657C482.783 798.879 482.669 798.912 482.059 800.013C478.146 802.753 469.56 801.081 464.658 801.576L464.102 801.635L464.078 814.103C469.326 813.966 475.446 813.236 480.594 814.133C482.432 814.453 483.853 815.016 484.932 816.617C484.866 817.366 485.034 817.726 484.411 818.245C481.66 820.539 462.83 819.479 458.266 819.446L458.043 778.145Z"/>
	<path fill="#0A2D58" transform="scale(1.02846 1.02846)" d="M233.311 796.534L302.479 796.602L302.428 804.719C279.492 805.611 256.274 804.481 233.287 804.741L233.311 796.534Z"/>
	<path fill="#0A2D58" transform="scale(1.02846 1.02846)" d="M373.806 448.206C376.56 448.262 379.045 448.46 381.535 449.743Q382.157 450.063 382.743 450.447Q383.328 450.831 383.87 451.274Q384.411 451.717 384.904 452.214Q385.396 452.712 385.833 453.258Q386.271 453.804 386.648 454.394Q387.026 454.983 387.339 455.609Q387.653 456.234 387.899 456.889Q388.145 457.545 388.321 458.222C389.293 461.882 388.903 465.939 386.929 469.207C384.494 473.238 380.917 474.581 376.569 475.545C373.287 475.404 370.493 475.092 367.728 473.174Q367.126 472.763 366.569 472.292Q366.013 471.82 365.508 471.294Q365.003 470.768 364.555 470.193Q364.107 469.617 363.721 468.999Q363.335 468.38 363.015 467.725Q362.694 467.07 362.443 466.385Q362.192 465.7 362.013 464.994Q361.834 464.287 361.729 463.565C361.193 460.051 361.885 456.303 364.026 453.419C366.534 450.039 369.799 448.879 373.806 448.206ZM373.489 454.528C370.97 455.986 369.069 457.302 368.369 460.287Q368.288 460.62 368.243 460.959Q368.199 461.299 368.19 461.641Q368.181 461.984 368.209 462.325Q368.237 462.666 368.301 463.003Q368.365 463.339 368.464 463.667Q368.564 463.995 368.697 464.31Q368.831 464.625 368.997 464.925Q369.164 465.224 369.361 465.504C370.442 467.063 372.337 468.37 374.231 468.659C375.24 468.813 376.29 468.819 377.309 468.839C379.578 467.524 381.892 465.901 382.448 463.135C382.827 461.246 382.369 459.553 381.22 458.033C379.24 455.412 376.566 454.906 373.489 454.528Z"/>
	<path fill="#0A2D58" transform="scale(1.02846 1.02846)" d="M335.492 777.636C335.744 777.616 335.996 777.593 336.249 777.577C343.599 777.111 349.025 779.317 354.489 784.134C353.188 785.137 351.955 786.266 350.701 787.329C349.439 786.454 348.17 785.576 346.803 784.872C342.86 782.842 338.456 782.042 334.184 783.518C330.143 784.915 326.876 788.144 325.094 791.991Q324.723 792.797 324.433 793.636Q324.144 794.475 323.938 795.338Q323.732 796.202 323.612 797.081Q323.491 797.96 323.458 798.847Q323.425 799.734 323.479 800.62Q323.533 801.505 323.674 802.382Q323.814 803.258 324.041 804.116Q324.267 804.974 324.576 805.806C325.863 809.186 328.288 812.026 331.635 813.486C337.428 816.013 344.108 813.959 349.677 811.796L349.522 803.51C346.963 803.508 344.413 803.324 341.86 803.171C341.792 801.762 341.608 800.491 342.239 799.18C345.165 796.851 351.671 798.104 355.258 798.203C355.192 803.242 355.185 808.205 355.557 813.237Q354.571 814.242 353.471 815.122Q352.371 816.001 351.173 816.742Q349.975 817.484 348.698 818.076Q347.42 818.668 346.08 819.102C340.207 821.023 333.31 820.617 327.876 817.593Q327.405 817.326 326.947 817.035Q326.49 816.745 326.048 816.432Q325.607 816.118 325.181 815.783Q324.756 815.448 324.348 815.091Q323.94 814.735 323.55 814.358Q323.161 813.982 322.791 813.586Q322.421 813.19 322.072 812.776Q321.723 812.362 321.395 811.931Q321.067 811.499 320.761 811.052Q320.456 810.605 320.173 810.143Q319.89 809.681 319.631 809.205Q319.373 808.729 319.138 808.241Q318.904 807.752 318.694 807.253Q318.485 806.753 318.301 806.243Q318.117 805.734 317.959 805.216Q317.801 804.697 317.67 804.172C316.29 798.706 317.083 792.357 320.045 787.528C323.597 781.737 329.186 779.256 335.492 777.636Z"/>
	<path fill="#0A2D58" transform="scale(1.02846 1.02846)" d="M405.962 777.368C411.902 781.423 416.796 787.328 421.783 792.489Q429.289 800.208 436.965 807.757C437.639 798.062 437.35 788.216 437.211 778.506L443.494 778.473C443.439 792.502 444.157 806.971 443.204 820.942C432.58 814.276 420.459 799.783 411.791 790.355C411.59 800.049 411.743 809.776 411.733 819.474L405.551 819.52L405.528 793.882C405.526 788.417 405.251 782.794 405.962 777.368Z"/>
	<path fill="#0A2D58" transform="scale(1.02846 1.02846)" d="M551.221 776.743C557.009 781.261 569.521 811.108 572.764 819.402L566.939 819.858C565.74 816.825 564.1 813.895 562.634 810.979L553.066 810.955L541.506 810.98L537.856 819.486L530.989 819.529C538.26 805.497 544.119 790.834 551.221 776.743ZM551.759 788.376C549.208 794.224 546.743 800.129 544.09 805.931L553.333 805.976L560.16 805.933C557.842 800.126 555.561 793.376 551.759 788.376Z"/>
	<path fill="#0A2D58" transform="scale(1.02846 1.02846)" d="M289.339 707.51L329.451 707.492L329.367 715.95Q321.948 715.829 314.528 715.944L314.526 742.507L314.634 757.454L303.236 757.398L303.101 715.879C298.48 715.84 293.849 715.95 289.227 715.991L289.339 707.51Z"/>
	<path fill="#0A2D58" transform="scale(1.02846 1.02846)" d="M495.779 778.247C501.947 777.898 509.102 777.275 515.095 778.912C518.415 779.818 521.368 781.699 523.023 784.794C524.591 787.727 524.907 791.476 523.92 794.646C522.554 799.032 519.938 800.838 516.062 802.803C519.702 808.508 523.325 814.245 527.56 819.532L520.418 819.496Q514.752 811.781 509.344 803.882L501.346 803.91C501.203 809.104 501.275 814.328 501.243 819.526L495.255 819.601C495.342 814.046 494.46 780.74 495.779 778.247ZM501.518 783.55L501.51 798.66C506.48 798.734 511.523 799.34 515.828 796.363C517.16 794.32 518.816 791.647 518.156 789.07C517.735 787.423 516.697 786.33 515.249 785.512C511.222 783.235 506.007 783.428 501.518 783.55Z"/>
	<path fill="#0A2D58" transform="scale(1.02846 1.02846)" d="M673.847 777.73C677.247 777.66 680.813 777.694 684.186 778.132C688.428 778.684 693.001 779.931 695.621 783.586C697.573 786.309 698.132 790.056 697.483 793.304C696.503 798.208 693.825 800.636 689.897 803.282Q695.428 811.281 700.764 819.411L692.601 819.52L689.889 815.706C687.693 811.893 685.21 808.2 682.868 804.473L674.196 804.454L674.36 819.455L667.556 819.459L667.633 778.009L673.847 777.73ZM674.107 783.088L674.067 799.534C679.194 799.558 684.834 800.109 689.206 796.906C690.581 794.837 692.177 792.207 691.702 789.588C691.356 787.682 690.207 786.383 688.587 785.404C684.162 782.73 679.037 783.136 674.107 783.088Z"/>
	<path fill="#0A2D58" transform="scale(1.02846 1.02846)" d="M263.17 706.651C269.786 706.195 275.242 707.715 281.242 710.375C279.875 713.211 278.356 715.826 276.656 718.475C273.788 717.189 270.668 715.732 267.508 715.431C264.729 715.167 262.335 715.492 260.232 717.427C259.019 718.544 258.661 719.442 258.565 721.058C261.455 727.084 274.795 728.539 280.132 733.079C282.498 735.091 284.184 737.819 284.341 740.974C284.546 745.074 282.263 749.778 279.519 752.721C275.554 756.974 269.829 758.346 264.231 758.559C257.837 758.152 252.798 756.042 247.032 753.366C248.745 750.681 250.671 748.112 252.524 745.521C256.858 748.126 260.707 750.234 265.959 749.728C268.556 749.477 270.961 747.89 272.477 745.772C273.335 744.573 273.313 743.89 273.138 742.48C269.326 736.529 260.174 736.494 254.432 733.126C251.39 731.341 249.037 728.681 248.268 725.178C247.486 721.613 248.367 717.057 250.374 714.012C253.223 709.69 258.315 707.692 263.17 706.651Z"/>
	<path fill="#0A2D58" transform="scale(1.02846 1.02846)" d="M338.04 707.495L370.979 707.497L370.944 715.949L349.228 715.754L349.204 728.097L368.967 728.019L368.659 736.498C365.002 736.273 351.901 735.041 349.188 737.159L349.165 749.21Q360.31 749.095 371.455 749.103L371.378 757.797C360.229 757.254 348.943 757.553 337.779 757.561Q337.46 732.525 338.04 707.495Z"/>
	<path fill="#0A2D58" transform="scale(1.02846 1.02846)" d="M402.156 706.316C405.729 710.064 424.691 750.488 427.81 757.802L416.032 757.845L412.762 750.256L402.098 750.315L391.371 750.222C390.592 752.759 389.427 755.232 388.415 757.686L376.399 758C384.553 740.64 393.535 723.469 402.156 706.316ZM401.226 728.209L394.879 743.047Q399.252 743.134 403.625 743.143L408.732 743.171C407.116 739.26 404.614 730.646 401.226 728.209Z"/>
	<path fill="#0A2D58" transform="scale(1.02846 1.02846)" d="M731.851 704.776L766.865 704.82L766.768 714.815L745.479 714.797L745.471 726.911L764.754 726.8L764.586 736.518C759.664 736.44 750.133 735.055 745.68 737.137L745.441 738.875L745.449 748.229Q756.648 748.26 767.844 748.042L767.836 758.016L731.595 758.025C731.522 740.474 730.462 722.23 731.851 704.776Z"/>
	<path fill="#0A2D58" transform="scale(1.02846 1.02846)" d="M543.081 703.702C550.88 703.141 558.243 704.31 565.655 706.698C565.858 711.043 565.659 715.429 565.584 719.778C561.196 717.371 556.884 715.206 551.845 714.571C547.215 713.988 542.12 714.726 538.399 717.724C534.671 720.727 532.794 725.445 532.418 730.124C532.028 734.963 533.409 739.871 536.616 743.567Q537.15 744.185 537.744 744.745Q538.339 745.306 538.987 745.803Q539.635 746.301 540.33 746.729Q541.025 747.158 541.76 747.514Q542.495 747.871 543.263 748.15Q544.03 748.43 544.822 748.63Q545.614 748.83 546.422 748.949Q547.23 749.068 548.046 749.104C554.952 749.455 559.828 746.303 564.636 741.799L565.616 741.753C567.276 745.149 566.392 751.173 566.244 754.975C562.799 756.653 559.196 758.014 555.44 758.801C546.794 760.613 536.905 759.713 529.441 754.693Q528.9 754.328 528.377 753.936Q527.854 753.545 527.352 753.128Q526.849 752.711 526.368 752.27Q525.887 751.828 525.428 751.363Q524.969 750.899 524.534 750.412Q524.099 749.925 523.688 749.417Q523.278 748.909 522.893 748.382Q522.508 747.854 522.15 747.308Q521.792 746.762 521.461 746.199Q521.131 745.635 520.829 745.057Q520.526 744.478 520.253 743.885Q519.98 743.292 519.737 742.685Q519.493 742.08 519.28 741.462Q519.067 740.845 518.885 740.218Q518.703 739.591 518.552 738.955Q518.401 738.32 518.282 737.678C516.775 729.954 518.192 721.403 522.78 714.931C527.768 707.892 534.92 705.01 543.081 703.702Z"/>
	<path fill="#0A2D58" transform="scale(1.02846 1.02846)" d="M488.438 704.808C489.076 722.238 488.474 739.891 488.443 757.343C485.502 757.162 480.49 758.149 477.981 756.629L477.736 755.138C477.777 747.184 477.952 739.198 477.511 731.253C472.493 736.421 467.822 742.247 461.687 746.13L461.307 745.913C455.114 742.436 450.105 735.661 445.672 730.234Q445.696 743.798 445.476 757.361C442.244 757.645 438.991 757.568 435.749 757.563Q435.907 731.4 435.649 705.238C438.741 707.82 441.543 711.952 444.229 715.014C449.962 721.548 455.855 728.074 462.009 734.209C470.862 724.48 480.067 714.954 488.438 704.808Z"/>
	<path fill="#0A2D58" transform="scale(1.02846 1.02846)" d="M630.443 777.673C635.686 777.418 640.961 778.199 645.553 780.876Q645.985 781.123 646.404 781.393Q646.823 781.662 647.227 781.952Q647.632 782.243 648.021 782.553Q648.41 782.864 648.782 783.194Q649.155 783.525 649.51 783.874Q649.865 784.223 650.202 784.589Q650.539 784.956 650.856 785.34Q651.173 785.723 651.471 786.123Q651.768 786.522 652.045 786.936Q652.321 787.35 652.576 787.778Q652.831 788.206 653.063 788.646Q653.296 789.086 653.506 789.538Q653.715 789.989 653.901 790.451Q654.088 790.913 654.25 791.384Q654.412 791.854 654.55 792.333Q654.688 792.811 654.801 793.296Q654.925 793.825 655.022 794.36Q655.12 794.895 655.191 795.434Q655.262 795.973 655.306 796.515Q655.35 797.057 655.368 797.6Q655.386 798.144 655.376 798.687Q655.367 799.231 655.331 799.773Q655.295 800.316 655.232 800.856Q655.169 801.396 655.08 801.932Q654.991 802.468 654.875 802.999Q654.76 803.531 654.618 804.055Q654.476 804.58 654.309 805.097Q654.141 805.615 653.949 806.123Q653.756 806.631 653.538 807.13Q653.321 807.628 653.079 808.115Q652.837 808.602 652.571 809.076Q652.306 809.55 652.017 810.011C648.413 815.646 642.905 818.24 636.56 819.489C630.977 819.679 626.067 819.306 621.174 816.32Q620.712 816.042 620.266 815.741Q619.819 815.439 619.388 815.116Q618.958 814.792 618.544 814.446Q618.13 814.101 617.735 813.735Q617.34 813.368 616.964 812.982Q616.588 812.596 616.232 812.192Q615.876 811.787 615.542 811.364Q615.207 810.942 614.895 810.503Q614.583 810.064 614.293 809.609Q614.004 809.155 613.738 808.686Q613.472 808.217 613.23 807.736Q612.989 807.254 612.773 806.76Q612.556 806.267 612.365 805.763Q612.174 805.259 612.01 804.746Q611.845 804.233 611.707 803.712Q611.568 803.191 611.457 802.664C610.332 797.21 611.389 791.128 614.609 786.544C618.395 781.154 624.182 778.753 630.443 777.673ZM630.371 783.063C625.891 784.289 622.251 786.246 619.798 790.353Q619.39 791.045 619.054 791.774Q618.718 792.503 618.457 793.262Q618.196 794.021 618.013 794.803Q617.83 795.585 617.726 796.381Q617.623 797.177 617.601 797.98Q617.578 798.782 617.637 799.583Q617.695 800.384 617.834 801.175Q617.973 801.965 618.191 802.738Q618.41 803.504 618.706 804.243Q619.002 804.983 619.372 805.688Q619.743 806.393 620.183 807.056Q620.624 807.719 621.131 808.334Q621.638 808.949 622.205 809.508Q622.771 810.067 623.393 810.565Q624.014 811.064 624.684 811.495Q625.353 811.927 626.063 812.288C629.497 814.048 633.371 814.296 637.14 813.74C641.779 812.078 645.539 809.843 647.767 805.206C649.537 801.523 649.693 797.403 648.34 793.558Q648.075 792.813 647.737 792.099Q647.398 791.384 646.991 790.706Q646.583 790.029 646.11 789.396Q645.637 788.762 645.103 788.179Q644.569 787.596 643.98 787.069Q643.391 786.541 642.752 786.076Q642.113 785.61 641.431 785.21Q640.749 784.81 640.03 784.48C636.857 783.019 633.807 782.827 630.371 783.063Z"/>
	<path fill="#0A2D58" transform="scale(1.02846 1.02846)" d="M673.772 704.74C680.448 704.571 687.683 704.642 694.178 706.277C701.055 708.007 707.195 711.602 710.846 717.891C714.629 724.407 715.347 732.6 713.277 739.794C711.25 746.839 707.304 751.354 700.993 754.775C689.751 759.736 675.921 758.149 663.916 757.974L664.022 705.068L673.772 704.74ZM679.452 715.211L677.994 715.666C676.198 721.186 677.447 741.286 677.506 748.155C683.903 748.182 689.748 748.41 695.213 744.532C698.735 740.534 701.116 736.013 700.793 730.532Q700.75 729.721 700.623 728.92Q700.496 728.118 700.287 727.334Q700.079 726.55 699.79 725.791Q699.501 725.033 699.136 724.308Q698.77 723.583 698.332 722.9Q697.893 722.217 697.387 721.583Q696.88 720.949 696.31 720.371Q695.741 719.792 695.115 719.276C690.492 715.469 685.149 715.187 679.452 715.211Z"/>
	<path fill="#B8B6B7" transform="scale(1.02846 1.02846)" d="M368.873 537.647C366.178 534.364 363.649 530.811 361.361 527.23Q360.368 525.65 359.414 524.045Q358.461 522.441 357.547 520.814Q356.633 519.187 355.759 517.538Q354.885 515.889 354.052 514.219Q353.219 512.549 352.428 510.859Q351.636 509.169 350.886 507.46Q350.136 505.751 349.428 504.024Q348.72 502.297 348.055 500.553Q347.39 498.81 346.768 497.05Q346.146 495.291 345.567 493.516Q344.988 491.742 344.453 489.954Q343.918 488.166 343.427 486.366Q342.936 484.565 342.49 482.753Q342.043 480.941 341.641 479.118Q341.239 477.296 340.882 475.464Q340.525 473.632 340.213 471.792Q339.901 469.952 339.634 468.105Q339.368 466.258 339.146 464.405Q338.925 462.552 338.749 460.694Q338.574 458.836 338.444 456.974Q338.314 455.112 338.229 453.248Q338.145 451.384 338.107 449.518Q338.068 447.652 338.076 445.785Q338.083 443.919 338.136 442.054Q338.19 440.188 338.289 438.325Q338.388 436.461 338.532 434.6Q338.677 432.74 338.867 430.883Q339.058 429.027 339.294 427.175Q339.53 425.324 339.811 423.479Q340.092 421.634 340.419 419.797Q340.745 417.959 341.117 416.13Q341.489 414.301 341.905 412.482C352.392 366.086 379.243 335.295 418.64 310.459C408.902 332.72 405.727 329.235 390.369 344.876C372.058 363.525 362.091 383.056 353.51 407.497C346.943 413.854 343.761 416.624 340.404 425.533C343.856 422.613 347.451 419.934 351.316 417.578C349.741 425.623 348.075 433.644 347.742 441.858C346.528 471.747 357.314 503.881 374.049 528.631Q374.699 529.6 375.38 530.546C372.944 532.645 370.576 534.887 368.873 537.647Z"/>
	<path fill="#0A2D58" transform="scale(1.02846 1.02846)" d="M469.755 227.581C466.21 222.558 463.505 217.466 464.481 211.073C465.217 206.251 468.076 202.409 472.072 199.717C476.537 196.708 481.91 195.946 487.11 197.179C491.719 198.272 495.847 200.882 498.212 205.072C500.643 209.38 501.017 214.564 499.582 219.262C498.045 224.296 494.406 228.808 489.648 231.124Q488.897 231.486 488.112 231.769Q487.328 232.052 486.519 232.254Q485.71 232.456 484.885 232.574Q484.059 232.692 483.226 232.726Q482.393 232.759 481.561 232.708Q480.728 232.656 479.906 232.52Q479.083 232.384 478.279 232.165Q477.474 231.946 476.696 231.646Q475.912 231.344 475.149 230.99L434.772 317.118C430.112 327.155 408.014 378.135 403.624 382.632C399.282 387.082 392.503 390.473 387.244 393.812Q373.954 402.155 360.86 410.803C357.936 412.752 353.707 415.048 351.316 417.578C347.451 419.934 343.856 422.613 340.404 425.533C343.761 416.624 346.943 413.854 353.51 407.497C368.247 398.242 383.966 386.88 399.114 378.845Q420.323 330.257 443.511 282.581C452.275 264.276 461.406 246.076 469.755 227.581ZM479.562 202.518C475.571 204.54 472.445 206.773 471.076 211.294Q470.898 211.894 470.784 212.509Q470.67 213.125 470.62 213.749Q470.57 214.373 470.585 214.998Q470.601 215.624 470.681 216.245Q470.761 216.866 470.905 217.475Q471.049 218.084 471.256 218.674Q471.462 219.265 471.729 219.831Q471.996 220.398 472.32 220.933Q472.631 221.441 472.989 221.917Q473.348 222.392 473.751 222.83Q474.155 223.269 474.599 223.665Q475.043 224.062 475.523 224.414Q476.004 224.766 476.517 225.069Q477.029 225.372 477.569 225.624Q478.108 225.876 478.67 226.074Q479.232 226.273 479.81 226.415C481.571 226.853 483.403 226.789 485.191 226.6C489.096 224.897 492.237 222.522 493.76 218.391Q493.971 217.816 494.122 217.222Q494.273 216.629 494.362 216.023Q494.452 215.417 494.479 214.805Q494.507 214.193 494.471 213.581Q494.436 212.97 494.338 212.365Q494.24 211.761 494.082 211.169Q493.923 210.577 493.704 210.005Q493.486 209.433 493.21 208.886C491.68 205.892 488.817 203.661 485.576 202.801C483.572 202.269 481.608 202.371 479.562 202.518Z"/>
	<path fill="#0A2D58" transform="scale(1.02846 1.02846)" d="M613.1 704.234C621.243 703.767 629.136 705.246 635.74 710.27C641.443 714.609 645.008 720.821 645.808 727.949C646.614 735.131 644.797 742.791 640.216 748.456C634.415 755.629 625.974 758.294 617.166 759.372C608.928 759.147 601.433 758.067 594.625 753.048Q594.087 752.659 593.57 752.243Q593.053 751.827 592.558 751.385Q592.063 750.943 591.591 750.476Q591.119 750.009 590.671 749.519Q590.224 749.029 589.802 748.517Q589.38 748.004 588.985 747.471Q588.589 746.938 588.222 746.385Q587.854 745.833 587.516 745.262Q587.177 744.691 586.867 744.104Q586.558 743.516 586.279 742.914Q586.001 742.312 585.753 741.696Q585.505 741.08 585.289 740.453Q585.073 739.825 584.89 739.187Q584.706 738.55 584.555 737.903Q584.404 737.257 584.287 736.604Q584.169 735.95 584.085 735.292Q583.998 734.648 583.942 734.001Q583.887 733.354 583.863 732.705Q583.84 732.056 583.849 731.407Q583.857 730.757 583.898 730.109Q583.939 729.461 584.012 728.816Q584.085 728.17 584.189 727.529Q584.294 726.888 584.43 726.253Q584.566 725.618 584.734 724.991Q584.901 724.363 585.099 723.745Q585.297 723.126 585.526 722.518Q585.754 721.91 586.013 721.314Q586.271 720.719 586.559 720.136Q586.846 719.554 587.162 718.986Q587.478 718.419 587.821 717.868Q588.165 717.316 588.535 716.783Q588.906 716.25 589.302 715.735C595.215 708.129 603.901 705.271 613.1 704.234ZM613.115 714.542C607.527 716.091 602.958 717.912 600.028 723.33C597.764 727.518 597.402 732.674 598.825 737.196Q599.065 737.973 599.382 738.721Q599.699 739.47 600.09 740.182Q600.48 740.895 600.941 741.565Q601.402 742.234 601.928 742.854Q602.454 743.473 603.04 744.037Q603.626 744.6 604.266 745.102Q604.905 745.603 605.593 746.037Q606.28 746.471 607.007 746.834C610.61 748.633 614.057 748.758 617.968 748.556C623.319 747.045 627.564 744.913 630.315 739.781Q630.735 738.984 631.074 738.15Q631.413 737.316 631.669 736.452Q631.925 735.589 632.094 734.704Q632.263 733.82 632.345 732.923Q632.427 732.026 632.42 731.125Q632.413 730.225 632.318 729.329Q632.222 728.434 632.039 727.552Q631.856 726.67 631.587 725.811Q631.35 725.047 631.036 724.311Q630.722 723.576 630.335 722.876Q629.948 722.176 629.492 721.519Q629.036 720.862 628.516 720.255Q627.995 719.648 627.415 719.097Q626.836 718.546 626.203 718.057Q625.57 717.567 624.891 717.145Q624.212 716.723 623.493 716.372C620.231 714.779 616.703 714.325 613.115 714.542Z"/>
	<path fill="#0A2D58" transform="scale(1.02846 1.02846)" d="M520.696 526.935C534.196 537.014 546.161 549.509 558.823 560.631C575.74 575.49 593.418 589.483 610.317 604.329C614.82 603.269 620.031 602.984 624.159 605.472C626.858 607.099 628.447 609.756 629.158 612.778C630.131 616.921 629.46 621.26 627.083 624.809C624.949 627.994 621.587 630.329 617.754 630.867C614.149 631.373 610.762 630.08 607.968 627.845C605.297 625.708 602.796 622.872 602.416 619.353C602.011 615.618 603.324 612.11 604.86 608.785C590.83 597.321 577.378 585.014 563.62 573.213C549.28 560.914 534.151 548.775 520.724 535.526C509.345 544.705 498.639 554.545 487.985 564.545C480.302 571.756 458.553 594.622 451.367 598.023C442.299 592.763 433.911 585.905 425.642 579.497C417.143 572.912 408.296 566.243 400.285 559.063C395.25 563.057 390.285 565.768 383.601 564.966Q383.124 564.906 382.65 564.822Q382.176 564.738 381.707 564.631Q381.238 564.524 380.775 564.393Q380.312 564.262 379.856 564.109Q379.4 563.955 378.952 563.778Q378.504 563.602 378.066 563.404Q377.628 563.205 377.2 562.985Q376.772 562.765 376.356 562.523Q375.94 562.282 375.536 562.02Q375.132 561.758 374.742 561.476Q374.352 561.195 373.977 560.894Q373.601 560.593 373.241 560.273Q372.881 559.954 372.538 559.617Q372.194 559.28 371.868 558.927Q371.542 558.573 371.233 558.203Q370.925 557.834 370.636 557.449Q370.346 557.066 370.075 556.668Q369.805 556.271 369.557 555.86Q369.308 555.448 369.081 555.025Q368.854 554.601 368.649 554.166Q368.444 553.731 368.263 553.286Q368.081 552.841 367.923 552.388Q367.765 551.934 367.631 551.472Q367.497 551.01 367.387 550.543Q367.277 550.075 367.192 549.602Q367.107 549.129 367.047 548.652Q366.986 548.175 366.951 547.696Q366.916 547.216 366.906 546.736Q366.895 546.255 366.91 545.775Q366.925 545.294 366.965 544.815Q367.005 544.337 367.07 543.86Q367.135 543.384 367.225 542.912C367.507 541.362 368.092 539.916 368.61 538.435C368.702 538.174 368.786 537.91 368.873 537.647C370.576 534.887 372.944 532.645 375.38 530.546C381.357 527.722 387.293 526.112 393.769 528.584Q394.178 528.738 394.578 528.913Q394.979 529.088 395.37 529.284Q395.761 529.48 396.141 529.695Q396.521 529.911 396.889 530.146Q397.258 530.381 397.614 530.635Q397.97 530.888 398.312 531.16Q398.654 531.432 398.982 531.721Q399.309 532.011 399.621 532.317Q399.933 532.622 400.229 532.944Q400.525 533.266 400.804 533.602Q401.083 533.939 401.344 534.289Q401.605 534.64 401.848 535.003Q402.09 535.367 402.314 535.743Q402.537 536.118 402.74 536.505Q402.944 536.892 403.127 537.289Q403.311 537.685 403.473 538.091C405.582 543.297 404.839 548.518 403.743 553.833C419.392 565.7 435.762 577.248 450.616 590.071C458.048 583.889 464.936 576.844 471.961 570.193C487.65 555.342 503.57 540.115 520.696 526.935ZM385.363 535.599C381.652 536.586 378.853 537.585 376.889 541.13Q376.623 541.611 376.407 542.118Q376.191 542.624 376.028 543.149Q375.865 543.675 375.756 544.214Q375.648 544.754 375.595 545.301Q375.542 545.849 375.545 546.399Q375.548 546.949 375.608 547.496Q375.667 548.043 375.782 548.581Q375.897 549.119 376.066 549.643Q376.24 550.183 376.467 550.703Q376.694 551.222 376.972 551.717Q377.249 552.212 377.575 552.676Q377.9 553.141 378.27 553.571Q378.64 554.001 379.051 554.392Q379.461 554.784 379.909 555.132Q380.356 555.48 380.836 555.783Q381.316 556.085 381.824 556.338C383.193 557.028 384.694 557.239 386.193 557.448C389.827 556.777 391.643 555.958 393.715 552.776C395.524 549.996 396.286 546.382 395.561 543.127C395.008 540.642 393.461 538.342 391.237 537.064C389.444 536.033 387.38 535.815 385.363 535.599ZM615.059 608.656C612.441 609.325 610.48 610.409 609.032 612.777Q608.818 613.134 608.642 613.512Q608.467 613.89 608.333 614.285Q608.198 614.679 608.107 615.086Q608.015 615.492 607.967 615.906Q607.919 616.32 607.916 616.737Q607.912 617.154 607.953 617.568Q607.993 617.983 608.077 618.391Q608.162 618.799 608.289 619.196C608.959 621.352 610.459 623.238 612.526 624.187C613.922 624.828 615.513 624.938 617.02 625.127C619.54 624.658 621.53 623.646 622.937 621.408C624.173 619.441 624.401 617.181 623.773 614.963Q623.65 614.536 623.484 614.123Q623.319 613.711 623.114 613.316Q622.909 612.922 622.666 612.55Q622.423 612.178 622.144 611.832Q621.865 611.485 621.553 611.169Q621.241 610.852 620.9 610.567Q620.558 610.283 620.19 610.034Q619.822 609.785 619.431 609.573C618.102 608.863 616.533 608.79 615.059 608.656Z"/>
	<path fill="#093D67" transform="scale(1.02846 1.02846)" d="M615.059 608.656C616.533 608.79 618.102 608.863 619.431 609.573Q619.822 609.785 620.19 610.034Q620.558 610.283 620.9 610.567Q621.241 610.852 621.553 611.169Q621.865 611.485 622.144 611.832Q622.423 612.178 622.666 612.55Q622.909 612.922 623.114 613.316Q623.319 613.711 623.484 614.123Q623.65 614.536 623.773 614.963C624.401 617.181 624.173 619.441 622.937 621.408C621.53 623.646 619.54 624.658 617.02 625.127C615.513 624.938 613.922 624.828 612.526 624.187C610.459 623.238 608.959 621.352 608.289 619.196Q608.162 618.799 608.077 618.391Q607.993 617.983 607.953 617.568Q607.912 617.154 607.916 616.737Q607.919 616.32 607.967 615.906Q608.015 615.492 608.107 615.086Q608.198 614.679 608.333 614.285Q608.467 613.89 608.642 613.512Q608.818 613.134 609.032 612.777C610.48 610.409 612.441 609.325 615.059 608.656ZM615.151 611.862C613.371 612.91 611.672 613.849 611.174 616.035C610.873 617.358 610.943 618.446 611.708 619.606C612.929 621.458 614.852 621.891 616.895 622.272C618.617 621.175 620.299 620.102 620.787 617.957C621.083 616.658 621.04 615.551 620.294 614.404C619.081 612.54 617.187 612.187 615.151 611.862Z"/>
	<path fill="#0A2D58" transform="scale(1.02846 1.02846)" d="M616.112 480.121C617.556 480.052 619 480 620.442 480.128C625.885 480.609 630.858 482.826 634.319 487.142C639.119 493.129 639.17 500.004 638.353 507.214C647.786 509.362 657.158 512.232 666.522 514.696Q688.616 520.634 710.983 525.445C713.333 522.043 716.121 519.093 719.745 517.037C725.115 513.989 731.724 513.486 737.593 515.293Q738.19 515.478 738.776 515.694Q739.363 515.91 739.938 516.155Q740.512 516.4 741.074 516.674Q741.635 516.949 742.182 517.251Q742.729 517.554 743.259 517.884Q743.79 518.214 744.303 518.571Q744.816 518.927 745.31 519.31Q745.805 519.692 746.279 520.099Q746.753 520.506 747.205 520.937Q747.658 521.368 748.088 521.821Q748.518 522.275 748.925 522.749Q749.331 523.224 749.713 523.719Q750.095 524.213 750.451 524.727Q750.806 525.241 751.136 525.772Q751.465 526.303 751.767 526.85Q752.069 527.397 752.342 527.959C755.057 533.633 755.518 540.447 753.303 546.365C750.769 553.136 745.239 557.201 738.944 560.121C738.703 560.196 738.463 560.276 738.221 560.348C732.148 562.152 725.444 561.911 719.886 558.681C711.203 553.635 708.077 544.692 705.751 535.549Q669.706 527.58 634.508 516.448C631.348 519.484 627.436 521.841 623.159 522.891Q622.642 523.016 622.119 523.115Q621.596 523.214 621.069 523.286Q620.542 523.359 620.012 523.405Q619.482 523.451 618.95 523.47Q618.418 523.489 617.886 523.482Q617.354 523.474 616.823 523.44Q616.292 523.406 615.764 523.346Q615.235 523.285 614.71 523.198Q614.185 523.111 613.665 522.997Q613.146 522.884 612.632 522.744Q612.119 522.605 611.613 522.44Q611.107 522.275 610.61 522.085Q610.113 521.895 609.626 521.68Q609.139 521.465 608.664 521.226Q608.189 520.987 607.726 520.725Q607.263 520.462 606.814 520.177Q606.353 519.886 605.907 519.572Q605.462 519.257 605.032 518.921Q604.603 518.584 604.192 518.226Q603.78 517.868 603.388 517.49Q602.995 517.111 602.622 516.714Q602.249 516.316 601.897 515.899Q601.545 515.483 601.214 515.049Q600.884 514.615 600.576 514.165Q600.268 513.715 599.983 513.25Q599.699 512.785 599.438 512.306Q599.177 511.827 598.942 511.335Q598.706 510.843 598.495 510.34Q598.285 509.837 598.1 509.324Q597.915 508.811 597.757 508.289Q597.599 507.767 597.467 507.238Q597.335 506.708 597.231 506.173C596.104 500.535 597.298 494.35 600.534 489.589C604.234 484.146 609.824 481.364 616.112 480.121ZM729.341 525.071C725.066 526.461 721.414 528.181 719.247 532.391Q718.97 532.94 718.751 533.515Q718.531 534.09 718.372 534.684Q718.213 535.278 718.116 535.886Q718.019 536.493 717.985 537.108Q717.951 537.722 717.98 538.336Q718.009 538.951 718.101 539.559Q718.193 540.167 718.347 540.763Q718.501 541.358 718.716 541.935C719.953 545.316 722.573 547.89 725.863 549.289C728.096 550.239 730.274 550.565 732.681 550.546C736.995 549.292 740.48 547.637 742.684 543.471Q742.981 542.898 743.219 542.298Q743.456 541.698 743.631 541.077Q743.806 540.456 743.917 539.82Q744.028 539.184 744.074 538.541Q744.119 537.897 744.099 537.252Q744.079 536.607 743.994 535.967Q743.908 535.327 743.758 534.7Q743.608 534.072 743.395 533.463C742.241 530.143 739.789 527.624 736.585 526.227C734.323 525.241 731.786 524.981 729.341 525.071ZM617.686 489.652C613.631 490.507 610.408 491.83 608.097 495.469Q607.793 495.956 607.538 496.47Q607.282 496.985 607.079 497.522Q606.875 498.059 606.725 498.613Q606.575 499.167 606.48 499.733Q606.385 500.3 606.346 500.873Q606.307 501.445 606.324 502.019Q606.341 502.593 606.414 503.163Q606.487 503.732 606.616 504.292C607.348 507.388 609.281 509.948 612.03 511.546C614.422 512.937 617.108 513.22 619.819 513.309C623.836 512.147 626.988 510.682 629.007 506.813C630.432 504.084 630.606 500.893 629.652 497.982C628.646 494.911 626.216 492.298 623.307 490.919C621.606 490.113 619.548 489.848 617.686 489.652Z"/>
	<path fill="#0A2D58" transform="scale(1.02846 1.02846)" d="M540.827 197.601C544.168 197.36 547.377 197.602 550.542 198.775Q551.387 199.087 552.197 199.481Q553.007 199.876 553.774 200.35Q554.54 200.824 555.255 201.372Q555.971 201.92 556.627 202.536Q557.284 203.153 557.876 203.832Q558.468 204.512 558.989 205.247Q559.51 205.982 559.955 206.765Q560.4 207.549 560.764 208.373C562.911 213.144 563.164 218.775 561.255 223.666Q561.075 224.127 560.871 224.578Q560.668 225.029 560.442 225.47Q560.216 225.91 559.967 226.338Q559.719 226.766 559.449 227.181Q559.18 227.596 558.89 227.997Q558.599 228.398 558.289 228.783Q557.978 229.169 557.649 229.538Q557.319 229.907 556.971 230.26Q556.624 230.612 556.258 230.946Q555.893 231.28 555.511 231.594Q555.13 231.909 554.732 232.205Q554.335 232.5 553.923 232.774Q553.511 233.049 553.086 233.302Q552.661 233.556 552.224 233.787Q551.786 234.018 551.337 234.227Q550.889 234.436 550.43 234.622Q549.539 234.981 548.617 235.253Q547.695 235.525 546.752 235.707Q545.808 235.889 544.851 235.98Q543.895 236.07 542.933 236.068Q541.972 236.066 541.016 235.972Q540.06 235.878 539.117 235.692Q538.174 235.506 537.253 235.23Q536.333 234.954 535.443 234.591C530.819 245.749 524.865 256.619 519.612 267.522C504.212 299.489 487.853 331.219 473.689 363.747C477.723 369.4 480.621 374.572 480.77 381.767Q480.787 382.462 480.768 383.156Q480.75 383.851 480.696 384.543Q480.642 385.236 480.552 385.925Q480.463 386.614 480.339 387.298Q480.214 387.981 480.055 388.658Q479.896 389.334 479.703 390.001Q479.509 390.669 479.282 391.325Q479.055 391.982 478.794 392.626Q478.534 393.27 478.241 393.9Q477.948 394.53 477.623 395.145Q477.299 395.759 476.943 396.356Q476.587 396.953 476.202 397.53Q475.816 398.108 475.401 398.666Q474.987 399.223 474.544 399.759Q474.102 400.295 473.632 400.807Q473.163 401.319 472.668 401.807C467.731 406.643 461.05 409.538 454.092 409.39C445.299 409.202 438.861 404.874 433.1 398.697C421.693 410.977 409.669 422.762 398.045 434.846C393.032 440.186 387.623 447.008 381.534 451.096C389.183 442.124 397.564 433.92 405.767 425.473C414.708 416.267 423.521 406.889 432.706 397.927L432.333 397.138C428.658 389.293 427.496 381.055 430.627 372.734C433.007 366.407 437.601 361.339 443.847 358.672C451.694 355.322 459.048 356.475 466.664 359.586C475.288 340.426 485.165 321.714 494.333 302.801C505.923 278.891 516.96 254.688 528.768 230.891C526.578 227.99 524.814 225.425 523.974 221.8Q523.865 221.319 523.78 220.834Q523.695 220.349 523.634 219.859Q523.574 219.37 523.538 218.879Q523.502 218.387 523.49 217.895Q523.478 217.402 523.491 216.91Q523.505 216.417 523.542 215.926Q523.58 215.434 523.642 214.945Q523.704 214.456 523.79 213.971Q523.877 213.486 523.987 213.006Q524.098 212.526 524.232 212.051Q524.366 211.577 524.524 211.11Q524.682 210.644 524.863 210.185Q525.044 209.727 525.247 209.278Q525.451 208.829 525.676 208.391Q525.902 207.953 526.149 207.527Q526.397 207.1 526.665 206.687C530.054 201.461 534.948 198.968 540.827 197.601ZM450.613 366.548C445.526 368.93 441.585 371.9 439.601 377.405Q439.45 377.818 439.321 378.238Q439.192 378.659 439.085 379.085Q438.978 379.512 438.894 379.943Q438.809 380.375 438.747 380.81Q438.685 381.245 438.646 381.683Q438.607 382.121 438.59 382.56Q438.574 383 438.58 383.439Q438.587 383.879 438.616 384.318Q438.646 384.756 438.698 385.193Q438.75 385.629 438.825 386.063Q438.9 386.496 438.997 386.925Q439.095 387.353 439.214 387.777Q439.334 388.2 439.475 388.616Q439.617 389.032 439.78 389.441Q439.943 389.849 440.127 390.248Q440.311 390.648 440.515 391.037Q440.878 391.729 441.309 392.381Q441.741 393.032 442.238 393.635Q442.734 394.239 443.29 394.788Q443.846 395.337 444.455 395.827Q445.065 396.316 445.721 396.74Q446.377 397.164 447.074 397.518Q447.77 397.873 448.5 398.154Q449.229 398.435 449.983 398.639Q451.025 398.913 452.091 399.067Q453.157 399.222 454.234 399.254Q455.311 399.286 456.385 399.197Q457.458 399.107 458.515 398.896C463.241 397.284 467.119 394.904 469.45 390.312C471.418 386.436 471.6 381.749 470.186 377.665Q470.047 377.253 469.887 376.849Q469.727 376.444 469.546 376.049Q469.364 375.653 469.163 375.268Q468.962 374.882 468.74 374.508Q468.519 374.133 468.279 373.771Q468.039 373.408 467.78 373.059Q467.521 372.709 467.244 372.374Q466.967 372.038 466.673 371.717Q466.38 371.397 466.07 371.092Q465.759 370.787 465.434 370.498Q465.108 370.21 464.768 369.939Q464.428 369.668 464.074 369.415Q463.72 369.162 463.354 368.927Q462.987 368.693 462.609 368.478Q462.231 368.263 461.842 368.068Q461.453 367.873 461.055 367.699C457.63 366.204 454.271 366.17 450.613 366.548ZM542.025 204.493C538.045 205.742 535.186 207.183 533.283 211.094Q533.031 211.617 532.832 212.163Q532.634 212.708 532.49 213.271Q532.346 213.834 532.259 214.408Q532.172 214.982 532.142 215.562Q532.112 216.141 532.14 216.722Q532.167 217.302 532.252 217.876Q532.337 218.45 532.479 219.013Q532.62 219.577 532.817 220.123C533.835 222.957 536.133 225.294 538.898 226.463C540.78 227.258 542.834 227.42 544.854 227.516C548.701 226.081 551.662 224.45 553.495 220.599Q553.739 220.089 553.93 219.558Q554.122 219.027 554.261 218.479Q554.4 217.932 554.484 217.373Q554.568 216.814 554.596 216.25Q554.624 215.686 554.597 215.122Q554.569 214.558 554.486 213.999Q554.404 213.44 554.266 212.892Q554.128 212.345 553.937 211.813C552.9 208.941 550.665 206.738 547.852 205.593C546.012 204.844 544.004 204.508 542.025 204.493Z"/>
	<path fill="#0A2D58" transform="scale(1.02846 1.02846)" d="M436.125 215.564L437.084 215.831C441.94 220.604 447.872 237.055 450.652 243.509Q442.879 260.377 434.879 277.138C424.686 282.204 414.26 286.515 404.341 292.175Q402.447 293.254 400.581 294.379Q398.714 295.503 396.876 296.674Q395.038 297.845 393.229 299.06Q391.42 300.276 389.642 301.535Q387.863 302.795 386.116 304.098Q384.37 305.401 382.656 306.747Q380.941 308.093 379.261 309.48Q377.58 310.868 375.935 312.296Q374.289 313.725 372.679 315.194Q371.069 316.662 369.495 318.17Q367.922 319.678 366.386 321.224Q364.85 322.77 363.353 324.354Q361.856 325.938 360.398 327.558Q358.94 329.177 357.523 330.833Q356.105 332.488 354.729 334.178Q353.353 335.868 352.018 337.591Q350.684 339.314 349.393 341.07Q348.102 342.825 346.854 344.612Q345.606 346.399 344.403 348.216Q343.199 350.033 342.041 351.879Q340.883 353.725 339.771 355.599Q338.658 357.473 337.593 359.374Q336.527 361.275 335.508 363.201Q334.489 365.128 333.518 367.079Q332.547 369.03 331.625 371.005Q330.702 372.979 329.829 374.976Q328.955 376.972 328.131 378.99Q327.307 381.007 326.532 383.044Q325.758 385.081 325.034 387.137Q324.31 389.192 323.637 391.265Q322.964 393.338 322.343 395.427Q321.721 397.516 321.151 399.619Q320.601 401.658 320.101 403.709Q319.601 405.76 319.152 407.823Q318.702 409.887 318.304 411.96Q317.905 414.033 317.557 416.116Q317.209 418.199 316.913 420.289Q316.616 422.38 316.371 424.477Q316.126 426.574 315.932 428.677Q315.739 430.779 315.597 432.886Q315.455 434.992 315.364 437.102Q315.274 439.211 315.235 441.322Q315.197 443.434 315.21 445.545Q315.223 447.656 315.288 449.767Q315.353 451.877 315.47 453.985Q315.586 456.094 315.755 458.198Q315.923 460.303 316.143 462.403Q316.363 464.503 316.635 466.597Q316.906 468.691 317.229 470.777Q317.551 472.864 317.925 474.942Q318.299 477.02 318.723 479.089Q319.148 481.157 319.623 483.214Q320.098 485.271 320.624 487.316Q321.149 489.361 321.725 491.393Q322.3 493.424 322.926 495.441Q323.551 497.458 324.225 499.459Q324.9 501.46 325.623 503.443Q326.346 505.427 327.118 507.392Q327.89 509.358 328.709 511.303Q329.529 513.249 330.396 515.174Q331.263 517.1 332.178 519.003Q333.092 520.906 334.052 522.786Q335.013 524.667 336.019 526.523Q337.025 528.379 338.077 530.21C358.673 566.003 392.98 594.92 431.142 610.439C443.645 615.523 456.618 618.923 469.626 622.421C477.316 634.259 477.721 640.391 477.568 654.269L564.849 654.483C564.351 648.042 564.012 641.375 562.811 635.029Q548.121 622.245 533.869 608.973C530.384 610.59 526.909 611.95 522.99 611.754C518.886 611.549 515.592 610.198 512.959 606.992C510.449 603.938 509.546 599.937 509.927 596.04Q509.988 595.379 510.116 594.728Q510.243 594.077 510.437 593.442Q510.63 592.807 510.886 592.195Q511.143 591.582 511.46 590.999Q511.777 590.416 512.152 589.869Q512.526 589.321 512.955 588.814Q513.383 588.307 513.861 587.846Q514.338 587.385 514.86 586.975C518.074 584.427 522.211 583.374 526.266 583.848C529.977 584.283 533.54 586.149 535.738 589.215C538.655 593.283 538.525 597.826 537.687 602.51C547.686 612.871 558.595 622.653 569.685 631.837L571.577 654.499L773.127 654.075C778.056 658.563 782.486 663.598 787.012 668.485L552.75 668.474L343.554 668.49C305.293 668.494 266.738 667.549 228.51 668.896C233.162 663.686 237.97 658.74 242.983 653.882C260.959 653.446 279.067 653.977 297.056 654.012Q338.178 653.951 379.297 654.303C382.793 640.905 387.084 627.738 390.021 614.196C380.106 607.397 370.812 599.709 361.445 592.185Q346.399 602.022 330.503 610.415C324.423 604.14 318.059 598.131 311.779 592.058C316.818 580.531 323.581 569.204 329.998 558.38C323.34 548.907 317.492 539.186 311.817 529.101C298.81 531.186 285.169 531.771 272.029 532.578L263.006 508.711Q279.777 497.021 297.523 486.872C294.515 475.862 293.785 463.906 293.466 452.518C281.088 448.072 268.606 444.236 256.042 440.359C256.951 431.567 257.304 422.684 257.506 413.85C270.577 410.954 283.915 409.266 297.012 406.397Q300.328 391.037 305.759 376.291C296.28 366.803 285.945 357.895 275.565 349.403C279.713 341.418 284.242 333.627 288.433 325.661Q307.33 329.963 325.87 335.607C332.836 326.474 340.156 317.706 348.192 309.499C342.847 296.666 336.052 284.58 331.191 271.508C337.517 265.532 343.889 259.547 350.743 254.175C361.552 262.269 371.915 271.186 382.225 279.905C391.554 274.187 401.701 268.014 412.136 264.575C409.729 250.997 410.463 236.708 409.04 222.976C417.974 220.19 427.074 217.933 436.125 215.564ZM433.211 634.829C427.646 641.538 421.349 647.923 416.12 654.87C425.192 653.856 434.76 654.436 443.875 654.519L461.368 654.511C460.551 650.26 459.773 646.008 458.649 641.824C450.071 639.805 441.521 637.799 433.211 634.829ZM518.463 597.796C519.016 599.057 519.732 600.399 520.152 601.703C521.449 602.282 523.007 602.9 524.44 602.948C525.925 602.997 527.436 602.635 528.411 601.423C529.249 600.382 529.424 599.05 529.27 597.765C529.057 595.979 528.054 593.848 526.474 592.868C525.425 592.217 524.37 591.956 523.159 592.304C520.677 593.017 519.457 595.663 518.463 597.796Z"/>
	<path fill="#093D67" transform="scale(1.02846 1.02846)" d="M518.463 597.796L518.123 598.232C517.841 596.136 517.974 594.259 519.379 592.586C520.682 591.035 523.604 590.202 525.556 590.307C527.24 590.398 528.666 591.157 529.749 592.445C531.133 594.091 531.528 596.539 531.204 598.616C530.944 600.288 530.255 601.845 529.144 603.117C527.129 604.162 525.34 604.535 523.094 603.93C521.984 603.632 520.986 603.001 520.016 602.402L519.975 601.829L520.152 601.703C521.449 602.282 523.007 602.9 524.44 602.948C525.925 602.997 527.436 602.635 528.411 601.423C529.249 600.382 529.424 599.05 529.27 597.765C529.057 595.979 528.054 593.848 526.474 592.868C525.425 592.217 524.37 591.956 523.159 592.304C520.677 593.017 519.457 595.663 518.463 597.796Z"/>
	<path fill="#0A2D58" transform="scale(1.02846 1.02846)" d="M596.613 215.702C601.333 215.411 606.1 216.025 610.291 218.355C615.028 220.989 618.075 225.491 619.405 230.687C620.86 236.374 620.113 242.199 616.94 247.175C613.906 251.933 608.891 255.466 603.328 256.52C597.475 257.629 591.537 255.863 586.693 252.556C581.414 256.225 573.254 259.737 569.522 264.956C566.374 269.358 564.319 275.476 562.046 280.409Q556.137 293.166 550.074 305.85Q524.061 361.8 497.286 417.388C501.338 414.744 505.919 412.613 510.186 410.318Q521.174 404.422 532.056 398.334C536.475 395.869 541.741 393.469 545.34 389.872C549.027 386.186 551.232 380.161 553.432 375.493Q559.657 362.368 565.621 349.122C568.665 342.232 571.33 334.397 575.516 328.132C580.486 320.693 587.882 314.548 594.29 308.35C608.791 294.325 624.922 280.411 638.049 265.18C637.417 260.948 637.66 256.538 639.876 252.768Q640.244 252.148 640.673 251.569Q641.102 250.99 641.588 250.458Q642.074 249.925 642.611 249.445Q643.148 248.964 643.732 248.541Q644.315 248.117 644.938 247.755Q645.561 247.393 646.218 247.096Q646.875 246.799 647.558 246.57Q648.242 246.341 648.945 246.183Q649.731 245.999 650.532 245.897Q651.332 245.795 652.139 245.776Q652.946 245.757 653.751 245.82Q654.556 245.883 655.35 246.029Q656.144 246.174 656.919 246.4Q657.693 246.626 658.441 246.93Q659.189 247.234 659.901 247.614Q660.614 247.993 661.284 248.443Q661.854 248.819 662.383 249.25Q662.911 249.682 663.394 250.164Q663.877 250.647 664.308 251.176Q664.739 251.705 665.115 252.274Q665.491 252.844 665.807 253.449Q666.123 254.054 666.377 254.688Q666.63 255.321 666.819 255.977Q667.007 256.633 667.128 257.305C667.892 261.502 666.674 266.274 664.214 269.732C662.117 272.681 658.275 274.895 654.694 275.36C649.803 275.996 645.869 273.646 642.097 270.882C629.607 284.33 615.859 296.94 602.631 309.677C595.804 316.25 587.567 322.847 582.336 330.795C578.634 336.419 575.987 342.778 573.147 348.864C567.556 360.847 562.329 373.075 556.383 384.882Q574.051 375.204 591.906 365.873C599.834 361.699 608.521 357.813 615.59 352.287C618.696 349.858 621.187 346.999 623.039 343.498C628.38 333.4 628.664 321.569 635.18 311.808C643.064 299.999 656.211 291.877 670.066 289.237C689.258 285.58 703.241 291.065 718.966 301.74C710.204 306.686 700.929 310.79 691.837 315.087C685.71 317.982 679.104 320.697 673.768 324.939C670.626 327.438 667.986 330.594 666.611 334.403C664.778 339.478 665.56 344.891 668.008 349.616C670.519 354.46 674.341 358.195 679.664 359.726C692.54 363.431 705.866 352.806 715.966 346.205C722.476 341.951 728.959 337.63 735.758 333.848C736.414 342.004 736.602 349.836 734.529 357.822C728.496 381.071 704.976 400.367 680.517 399.421C671.399 399.069 662.433 395.026 653.279 395.861C646.43 396.485 640.815 400.152 635.057 403.58C637.429 405.826 639.936 407.334 642.94 408.575C649.98 411.485 657.68 412.927 665.03 414.862Q681.425 419.176 697.703 423.915Q716.449 414.21 734.849 403.864C734.562 400.357 735.234 395.318 737.354 392.374C739.534 389.346 743.56 388.179 747.099 387.805C750.767 387.417 754.721 388.023 757.557 390.548C760.214 392.914 761.553 396.498 761.699 399.999C761.864 403.937 760.298 407.75 757.622 410.612C755.278 413.118 752.049 414.895 748.561 414.915C744.32 414.94 740.6 412.457 737.769 409.518C725.069 417.201 711.91 424.007 698.799 430.951C691.404 429.489 684.047 427.169 676.777 425.173L636.017 413.791C634.031 411.201 632.424 408.4 630.767 405.595Q618.362 413.076 605.836 420.353C613.395 428.958 620.802 437.228 627.282 446.714L639.613 449.921C666.222 456.994 695.704 463.11 722.838 467.884C723.815 466.466 724.87 465.022 726.021 463.741C730.458 458.803 736.699 455.451 743.399 455.236C749.923 455.026 755.395 457.562 760.1 461.918C764.644 466.125 767.644 471.838 767.786 478.094C767.919 483.966 765.494 489.411 761.451 493.612Q761.035 494.048 760.597 494.463Q760.16 494.879 759.703 495.272Q759.245 495.665 758.769 496.035Q758.293 496.405 757.8 496.751Q757.306 497.098 756.796 497.419Q756.286 497.741 755.76 498.037Q755.235 498.333 754.695 498.602Q754.156 498.872 753.604 499.115Q753.052 499.358 752.489 499.573Q751.925 499.788 751.352 499.975Q750.779 500.163 750.197 500.322Q749.615 500.48 749.027 500.61Q748.438 500.74 747.843 500.841Q747.249 500.942 746.65 501.013Q746.051 501.084 745.449 501.126Q744.848 501.168 744.245 501.18C738.391 501.276 732.453 499.531 728.208 495.365C722.516 489.779 721.514 482.268 721.481 474.719C707.527 471.116 693.179 468.713 679.081 465.699Q651.088 459.461 623.2 452.764C615.8 442.602 608.019 433.476 599.503 424.23Q578.571 436.198 557.861 448.549C570.909 459.087 583.384 470.429 596.18 481.281L591.537 486.895C586.59 482.983 582.032 478.591 577.287 474.44Q564.532 463.419 551.906 452.249C540.166 459.836 527.653 466.83 515.511 473.761C537.727 494.267 561.279 513.317 584.392 532.8Q606.977 552.193 629.268 571.924C642.171 573.638 654.946 577.072 667.493 580.442C675.035 582.467 682.736 584.351 690.097 586.948C692.575 583.171 695.891 579.769 700.262 578.294C704.535 576.851 709.846 577.225 713.84 579.342C717.311 581.182 719.522 584.343 720.577 588.079C721.916 592.825 721.413 597.872 718.971 602.175C716.829 605.947 713.23 608.932 708.985 609.976C704.873 610.987 700.652 609.863 697.163 607.593C691.527 603.925 689.906 599.152 688.58 592.91C684.079 592.138 679.535 590.595 675.121 589.396C665.524 586.788 655.919 584.001 646.223 581.791C640.391 580.461 630.31 580.112 625.368 577.292C619.519 573.954 613.728 567.679 608.634 563.21L575.469 534.216Q556.101 517.409 536.511 500.861C527.411 493.123 517.904 485.619 509.745 476.873C506.979 478.702 504.353 480.48 501.921 482.746C501.237 485.58 500.654 488.457 499.808 491.247C495.759 504.591 487.111 516.587 474.674 523.21Q473.556 523.799 472.41 524.331Q471.264 524.863 470.093 525.337Q468.922 525.812 467.729 526.227Q466.535 526.642 465.323 526.997Q464.11 527.352 462.882 527.646Q461.653 527.941 460.411 528.173Q459.169 528.406 457.917 528.576Q456.665 528.746 455.406 528.853Q454.147 528.961 452.885 529.005Q451.622 529.05 450.359 529.031Q449.095 529.012 447.835 528.93Q446.574 528.849 445.319 528.704Q444.063 528.56 442.817 528.353Q441.571 528.146 440.336 527.876Q439.102 527.607 437.882 527.277Q436.663 526.947 435.461 526.556Q434.323 526.205 433.203 525.798Q432.083 525.391 430.984 524.93Q429.886 524.469 428.812 523.954Q427.737 523.44 426.689 522.873Q425.641 522.306 424.622 521.689Q423.603 521.071 422.616 520.404Q421.629 519.737 420.676 519.023Q419.722 518.308 418.805 517.548Q417.888 516.788 417.009 515.983Q416.131 515.178 415.293 514.332Q414.454 513.485 413.659 512.598Q412.863 511.711 412.112 510.786Q411.362 509.861 410.657 508.901Q409.952 507.94 409.296 506.946Q408.639 505.952 408.032 504.927Q407.425 503.902 406.869 502.848Q406.262 501.656 405.713 500.436Q405.165 499.216 404.676 497.971Q404.188 496.726 403.76 495.459Q403.333 494.191 402.968 492.904Q402.602 491.618 402.3 490.315Q401.998 489.012 401.76 487.695Q401.521 486.379 401.347 485.053Q401.173 483.727 401.064 482.394Q400.954 481.061 400.91 479.724Q400.866 478.387 400.886 477.05Q400.907 475.712 400.993 474.377Q401.078 473.043 401.229 471.714Q401.379 470.385 401.595 469.064Q401.81 467.744 402.089 466.436Q402.368 465.128 402.71 463.835Q403.052 462.542 403.457 461.267C407.452 448.774 416.409 437.613 428.147 431.622C442.63 424.231 456.421 426.171 471.314 431.047C476.882 427.823 482.599 424.876 488.296 421.889C492.518 410.251 498.766 398.96 504.121 387.802Q517.47 360.031 530.532 332.124L550.186 290.284C554.485 280.89 558.374 269.9 564.219 261.414C568.541 255.142 575.634 251.471 581.966 247.547C581.103 245.722 580.2 243.813 579.681 241.86C578.256 236.496 578.753 230.333 581.603 225.508C584.981 219.786 590.383 217.168 596.613 215.702ZM677.615 295.183C664.471 296.843 651.544 301.738 643.258 312.581C633.471 325.388 634.548 343.502 623.145 355.243C614.592 364.05 570.317 385.11 557.134 392.064C539.23 401.508 521.604 411.449 503.746 420.968C494.539 425.877 479.589 432.017 472.759 439.605C460.214 434.108 448.384 430.534 435.038 435.754C424.282 439.96 415.834 448.74 411.331 459.3Q410.868 460.365 410.46 461.452Q410.052 462.539 409.7 463.645Q409.347 464.752 409.051 465.874Q408.755 466.997 408.515 468.133Q408.276 469.269 408.095 470.416Q407.913 471.563 407.79 472.718Q407.666 473.872 407.601 475.032Q407.536 476.191 407.53 477.352Q407.524 478.513 407.576 479.673Q407.629 480.833 407.74 481.989Q407.851 483.145 408.02 484.293Q408.189 485.442 408.416 486.581Q408.643 487.72 408.927 488.845Q409.211 489.971 409.552 491.081Q409.892 492.191 410.289 493.283Q410.685 494.374 411.136 495.444C415.566 506.243 423.426 514.585 434.254 519.077Q435.251 519.486 436.267 519.846Q437.282 520.206 438.315 520.514Q439.347 520.823 440.394 521.081Q441.44 521.338 442.498 521.543Q443.556 521.748 444.623 521.9Q445.689 522.052 446.762 522.152Q447.835 522.251 448.912 522.297Q449.989 522.343 451.066 522.336Q452.144 522.328 453.22 522.268Q454.296 522.207 455.367 522.093Q456.439 521.979 457.503 521.812Q458.568 521.645 459.623 521.425Q460.678 521.205 461.72 520.934Q462.763 520.662 463.791 520.339Q464.819 520.016 465.83 519.643Q466.841 519.269 467.832 518.846C478.902 514.183 486.757 505.028 491.158 493.998Q491.939 492.028 492.673 490.041C493.466 486.834 494.351 483.63 494.829 480.358C497.236 477.752 499.717 475.738 502.659 473.759C510.483 468.492 518.947 463.955 527.068 459.155L568.763 434.316L604.638 413.056C616.639 405.838 628.691 398.186 641.374 392.227C645.47 390.303 649.627 389.182 654.158 388.98C661.61 388.647 668.855 390.664 676.192 391.612Q676.87 391.696 677.549 391.76Q678.229 391.824 678.91 391.868Q679.592 391.911 680.274 391.935Q680.956 391.958 681.639 391.961Q682.322 391.964 683.004 391.947Q683.687 391.93 684.368 391.893Q685.05 391.855 685.73 391.798Q686.411 391.74 687.089 391.662Q687.767 391.585 688.443 391.487Q689.119 391.389 689.791 391.271Q690.463 391.153 691.132 391.015Q691.801 390.877 692.465 390.719Q693.129 390.562 693.788 390.384Q694.448 390.207 695.101 390.01Q695.755 389.813 696.403 389.597Q697.05 389.381 697.691 389.145Q698.332 388.91 698.966 388.656Q699.599 388.401 700.225 388.128Q700.851 387.855 701.468 387.564Q702.086 387.273 702.694 386.963Q703.302 386.653 703.901 386.326Q704.5 385.998 705.089 385.653Q705.678 385.307 706.257 384.945Q706.835 384.582 707.403 384.203Q707.97 383.823 708.526 383.427Q709.082 383.03 709.626 382.618Q710.17 382.205 710.701 381.776Q711.232 381.348 711.751 380.903Q712.269 380.459 712.774 380Q713.279 379.54 713.77 379.066Q714.261 378.592 714.738 378.103Q715.215 377.615 715.677 377.112C724.011 368.205 728.038 357.981 729.351 345.966C715.748 354.944 695.821 371.851 678.551 368.018C671.271 366.402 665.24 361.49 661.488 355.144Q661.135 354.552 660.811 353.943Q660.488 353.335 660.195 352.711Q659.903 352.086 659.642 351.448Q659.381 350.81 659.152 350.16Q658.923 350.81 658.727 350.149Q658.531 349.488 658.369 348.818Q658.206 348.148 658.078 347.471Q657.949 346.794 657.854 346.111Q657.759 345.428 657.698 344.742Q657.638 344.055 657.612 343.366Q657.586 342.677 657.594 341.988Q657.603 341.299 657.645 340.611Q657.688 340.311 657.766 339.623Q657.843 338.938 657.954 338.253Q658.066 337.573 658.211 336.89Q658.356 336.216 658.535 335.542C661.168 324.202 668.854 318.613 677.19 314.039C685.905 309.256 695.087 305.337 704.124 301.209C696.411 296.306 686.685 294.38 677.615 295.183ZM741.399 460.571C735.902 462.401 731.458 464.843 728.724 470.252Q728.512 470.677 728.321 471.112Q728.131 471.547 727.964 471.991Q727.797 472.436 727.653 472.888Q727.508 473.341 727.388 473.8Q727.267 474.259 727.171 474.724Q727.074 475.189 727.002 475.658Q726.93 476.128 726.882 476.6Q726.834 477.073 726.81 477.547Q726.787 478.021 726.788 478.496Q726.789 478.971 726.815 479.445Q726.841 479.919 726.891 480.391Q726.941 480.864 727.016 481.333Q727.091 481.802 727.189 482.266Q727.288 482.73 727.411 483.189Q727.534 483.648 727.68 484.1Q727.826 484.551 727.996 484.995C729.567 489.151 732.683 492.662 736.752 494.499C740.334 496.116 743.584 496.172 747.398 495.92C753.034 494.043 757.519 491.058 760.151 485.511Q760.343 485.111 760.515 484.702Q760.686 484.293 760.836 483.875Q760.986 483.458 761.114 483.033Q761.242 482.609 761.348 482.178Q761.454 481.747 761.538 481.311Q761.621 480.876 761.682 480.436Q761.743 479.997 761.781 479.555Q761.82 479.113 761.835 478.67Q761.85 478.226 761.842 477.783Q761.835 477.339 761.804 476.897Q761.773 476.454 761.72 476.014Q761.667 475.574 761.59 475.137Q761.514 474.7 761.416 474.267Q761.317 473.835 761.196 473.408Q761.075 472.981 760.932 472.561Q760.789 472.141 760.625 471.729Q760.46 471.308 760.273 470.897Q760.086 470.485 759.878 470.084Q759.67 469.682 759.442 469.292Q759.214 468.902 758.966 468.524Q758.718 468.146 758.45 467.781Q758.183 467.417 757.897 467.066Q757.612 466.716 757.308 466.381Q757.005 466.046 756.685 465.726Q756.364 465.407 756.028 465.105Q755.692 464.803 755.34 464.519Q754.989 464.234 754.623 463.969Q754.258 463.703 753.879 463.456Q753.5 463.209 753.109 462.983Q752.718 462.756 752.315 462.55Q751.913 462.343 751.501 462.158Q751.088 461.973 750.667 461.809C747.563 460.592 744.695 460.416 741.399 460.571ZM599.238 220.583C594.018 221.494 589.853 222.942 586.646 227.499Q586.191 228.142 585.805 228.828Q585.418 229.514 585.104 230.235Q584.789 230.957 584.551 231.708Q584.312 232.458 584.151 233.229Q583.99 233.999 583.909 234.783Q583.828 235.566 583.828 236.353Q583.828 237.141 583.908 237.924Q583.988 238.707 584.148 239.478Q584.296 240.195 584.515 240.894Q584.733 241.592 585.02 242.266Q585.306 242.94 585.658 243.582Q586.01 244.224 586.424 244.828Q586.838 245.431 587.31 245.991Q587.781 246.551 588.306 247.062Q588.831 247.572 589.404 248.028Q589.977 248.484 590.592 248.881C593.622 250.81 597.496 251.65 601.065 251.4C605.981 250.45 609.944 248.482 612.771 244.186C614.93 240.907 615.858 236.886 615.048 233.015C614.365 229.753 612.517 227.385 610.195 225.099L609.493 224.927L608.582 225.836C607.588 225.309 607.938 225.696 607.525 224.84C606.876 223.496 606.392 222.126 604.867 221.613C603.174 221.045 601.003 220.712 599.238 220.583ZM704.126 584C700.591 585.495 697.718 587.476 696.314 591.207C695.433 593.546 695.462 596.172 696.599 598.423C697.781 600.763 700.117 602.461 702.615 603.166C703.967 603.548 705.445 603.544 706.84 603.554C710.174 602.381 712.934 600.737 714.483 597.407Q714.686 596.98 714.845 596.534Q715.004 596.088 715.116 595.629Q715.228 595.169 715.293 594.701Q715.358 594.232 715.375 593.759Q715.391 593.286 715.36 592.815Q715.328 592.343 715.248 591.876Q715.168 591.41 715.042 590.954Q714.915 590.498 714.742 590.058C713.774 587.617 711.735 585.701 709.305 584.742C707.668 584.096 705.866 584.027 704.126 584ZM650.723 251.958C647.749 253.482 645.557 254.961 644.545 258.32C643.89 260.497 644.129 262.828 645.341 264.769C646.572 266.741 648.725 268.188 651.004 268.633C652.285 268.884 653.66 268.799 654.959 268.758C657.853 267.177 660.017 265.661 660.912 262.32C661.495 260.141 661.192 257.729 659.946 255.831C658.601 253.781 656.19 252.289 653.747 252.018C652.751 251.907 651.724 251.938 650.723 251.958ZM745.482 394.001C743.247 395.834 741.474 397.516 741.21 400.545C741.047 402.409 741.624 404.281 742.908 405.659C744.197 407.043 746.349 408.081 748.247 408.156C749.17 408.192 750.114 408.084 751.032 407.989C753.292 406.114 755.311 404.235 755.485 401.119C755.593 399.184 754.919 397.519 753.528 396.174C751.196 393.917 748.538 393.869 745.482 394.001Z"/>
	<path fill="#868E97" transform="scale(1.02846 1.02846)" d="M678.484 297.174C686.53 296.629 693.888 297.55 701.263 300.91C692.874 305.515 683.696 308.551 675.343 313.36C667.083 318.115 660.129 324.123 657.661 333.737Q657.479 334.454 657.333 335.178Q657.186 335.903 657.076 336.634Q656.965 337.365 656.89 338.101Q656.816 338.837 656.777 339.575Q656.739 340.313 656.737 341.053Q656.735 341.792 656.769 342.531Q656.803 343.269 656.874 344.005Q656.944 344.741 657.051 345.473Q657.158 346.205 657.3 346.93Q657.443 347.656 657.62 348.373Q657.798 349.091 658.011 349.799Q658.224 350.507 658.472 351.204Q658.719 351.901 659 352.584Q659.282 353.268 659.596 353.937Q659.911 354.606 660.258 355.259Q660.605 355.912 660.984 356.547C664.723 362.778 670.671 367.453 677.823 369.08C695.76 373.162 712.619 358.357 726.547 349.296C726.705 358.136 722.816 365.194 717.841 372.201C705.619 385.567 690.988 392.025 672.855 388.169C660.87 385.621 651.899 382.314 639.615 385.726C634.798 378.157 629.379 370.937 624.11 363.677C636.477 349.581 635.358 330.113 646.247 315.479C653.98 305.087 665.815 298.96 678.484 297.174Z"/>
	<path fill="#0A2D58" transform="scale(1.02846 1.02846)" d="M445.146 441.619C453.38 440.825 461.001 442.396 468.066 446.747Q468.856 447.224 469.62 447.741Q470.385 448.257 471.122 448.812Q471.859 449.366 472.567 449.958Q473.275 450.549 473.953 451.176Q474.63 451.802 475.274 452.463Q475.919 453.123 476.529 453.815Q477.139 454.507 477.713 455.229Q478.287 455.951 478.824 456.702Q479.361 457.452 479.859 458.229Q480.357 459.005 480.815 459.807Q481.272 460.607 481.689 461.431Q482.105 462.254 482.48 463.097Q482.854 463.94 483.185 464.802Q483.516 465.663 483.802 466.54Q484.089 467.417 484.331 468.307Q484.573 469.197 484.769 470.099Q484.977 470.996 485.14 471.903Q485.303 472.81 485.422 473.723Q485.541 474.637 485.614 475.555Q485.688 476.474 485.716 477.394Q485.744 478.315 485.727 479.236Q485.71 480.157 485.648 481.076Q485.586 481.996 485.478 482.911Q485.371 483.826 485.218 484.734Q485.066 485.643 484.869 486.543Q484.673 487.443 484.432 488.332Q484.191 489.221 483.907 490.097Q483.623 490.974 483.296 491.835Q482.969 492.696 482.6 493.54Q482.231 494.385 481.821 495.21Q481.411 496.035 480.961 496.838Q480.511 497.642 480.022 498.423C474.482 507.122 466.33 511.234 456.511 513.418C447.657 514.336 439.471 513.152 431.901 508.214C424.266 503.233 418.78 495.587 416.942 486.624C414.854 476.438 416.458 464.982 422.238 456.241C427.711 447.963 435.58 443.564 445.146 441.619Z"/>
	<path fill="#0A2D58" transform="scale(1.02846 1.02846)" d="M621.542 365.542C627.106 370.946 632.312 379.824 635.426 386.881C620.665 394.261 606.307 402.736 591.968 410.899Q542.284 439.492 493.437 469.491C491.084 459.207 485.848 451.592 478.521 444.22C484.615 440.386 491.177 437.176 497.536 433.808L529.357 417.051C539.219 411.859 548.774 406.085 558.578 400.781C579.762 389.321 600.988 378.121 621.542 365.542Z"/>
</svg>
